Coordinates
version=1
nRows=19
nColumns=36
inDegrees=yes

Units are S.I. units (second, meters, Newtons, ...)
If the header above contains a line with 'inDegrees', this indicates whether rotational values are in degrees (yes) or radians (no).

endheader
time	pelvis_tilt	pelvis_list	pelvis_rotation	pelvis_tx	pelvis_ty	pelvis_tz	hip_flexion_r	hip_adduction_r	hip_rotation_r	knee_angle_r	knee_angle_r_beta	ankle_angle_r	subtalar_angle_r	mtp_angle_r	hip_flexion_l	hip_adduction_l	hip_rotation_l	knee_angle_l	knee_angle_l_beta	ankle_angle_l	subtalar_angle_l	mtp_angle_l	lumbar_extension	lumbar_bending	lumbar_rotation	arm_flex_r	arm_add_r	arm_rot_r	elbow_flex_r	pro_sup_r	arm_flex_l	arm_add_l	arm_rot_l	elbow_flex_l	pro_sup_l
      4.46666670	    -33.76163940	     -8.79814167	      5.99683386	      1.08453000	      0.64596761	     -0.09709805	     96.64267260	    -14.80882445	     -2.26927151	     95.28273739	      1.66299749	     41.41206141	      0.09407323	     -7.49999987	    101.50050074	    -19.80393094	      5.91189561	     96.17854908	      1.67863235	     41.10980444	      2.78898995	     -7.49999987	    -23.96404324	      2.49278527	     15.16214261	     98.24868585	    -19.72859001	     75.87748184	    130.32199494	     47.06500012	    102.11459061	      3.88011457	     74.31843083	    113.53232560	     74.95681538
      4.48333330	    -33.54021353	     -8.73092490	      5.91653029	      1.09118896	      0.65995267	     -0.10035663	     94.50681533	    -14.54956338	     -2.78064633	     93.00330580	      1.62321390	     41.11683665	      0.02834879	     -7.49999987	     99.24857698	    -19.93724010	      5.26505947	     94.03948234	      1.64129859	     41.02480937	      2.77486477	     -7.49999987	    -23.23266084	      2.38144636	     14.75400677	     97.64848523	    -19.78550957	     75.96570284	    130.37177466	     47.15527475	    101.20118042	      3.81263926	     74.37761933	    113.46160598	     74.89813470
      4.50000000	    -32.70122261	     -8.52941027	      5.94379442	      1.09820247	      0.67980801	     -0.09878302	     91.47090933	    -14.25527699	     -3.25516454	     90.42797969	      1.57826598	     40.82198883	      0.20661602	     -7.49999987	     95.99341292	    -20.13120806	      4.38652607	     91.55519886	      1.59793967	     41.00509113	      3.20440120	     -7.49999987	    -23.34597530	      2.26316828	     14.22479025	     96.10322027	    -19.12577928	     75.01323039	    129.61736246	     48.85234547	     99.88343017	      3.21443758	     74.32789187	    113.53686211	     73.69523433
      4.51666670	    -31.69677520	     -8.37505166	      5.92789157	      1.11007606	      0.69245335	     -0.10002287	     88.10050188	    -13.88992904	     -3.77238801	     87.77145850	      1.53190094	     40.65143227	      0.31323979	     -7.49999987	     92.37912437	    -20.36490010	      3.59598956	     88.96655903	      1.55275938	     41.14107263	      3.79973120	     -7.49999987	    -23.09314779	      2.09904145	     13.89135138	     94.64357755	    -18.58891952	     76.19577989	    131.01054460	     49.10147674	     98.31381867	      3.48210212	     74.07929105	    113.59025060	     73.86656660
      4.53333330	    -30.90041467	     -8.21523232	      5.86419793	      1.09949876	      0.70033201	     -0.09349263	     85.54554618	    -13.46618746	     -4.14833831	     85.57581965	      1.49357981	     40.34391150	      0.48774061	     -7.49999987	     89.63459792	    -20.66497611	      2.87997277	     86.79299974	      1.51482361	     40.83590892	      4.09984912	     -7.49999987	    -22.83567075	      1.87608041	     13.72385289	     95.32526014	    -18.24225484	     74.52461087	    130.97607299	     49.76418713	     98.82747526	      3.58225077	     72.93805277	    113.86990030	     73.40790117
      4.55000000	    -30.09383583	     -8.07524788	      5.97517151	      1.10061627	      0.71674957	     -0.09202489	     82.93372764	    -13.22264133	     -4.70709462	     83.21133153	      1.45231171	     40.05448651	      0.59017213	     -7.49999987	     87.01352481	    -20.80189171	      2.10182563	     84.53443686	      1.47540425	     40.33354034	      4.31030903	     -7.49999987	    -22.61620195	      1.78402593	     13.39249266	     95.48233159	    -17.92918900	     74.37879785	    130.06915379	     51.13503645	     98.53329032	      3.63933009	     73.78778287	    114.29110014	     73.05721746
      4.56666670	    -29.27649102	     -7.89741420	      5.86253088	      1.10765678	      0.73575523	     -0.09028004	     80.09562519	    -12.76844751	     -5.28710622	     80.50752425	      1.40512137	     39.54826999	      0.58682287	     -7.49999987	     84.07378118	    -21.16383031	      1.17551326	     81.93291942	      1.42999921	     39.64174830	      4.59659817	     -7.49999987	    -22.42529230	      1.54536339	     13.39957538	     95.12049955	    -17.00568929	     74.33774456	    128.95914087	     52.45497852	     97.27597311	      3.38582849	     73.45808112	    113.72638785	     72.95287554
      4.58333330	    -28.41196147	     -7.70079439	      5.73189411	      1.11339249	      0.74423670	     -0.09322908	     77.31971131	    -12.37909287	     -5.79129913	     77.99934094	      1.36134531	     39.10244161	      0.63653444	     -7.49999987	     81.10537910	    -21.50335599	      0.25655860	     79.46723634	      1.38696492	     38.91907917	      4.88209666	     -7.49999987	    -21.85730127	      1.33975607	     13.02505616	     94.02982983	    -17.03486635	     72.83471253	    130.04792217	     53.63318468	     96.48945633	      3.89487926	     74.08949958	    114.75922313	     72.63318290
      4.60000000	    -28.00815993	     -7.59268143	      5.53921222	      1.11398449	      0.75614763	     -0.09313098	     75.03403781	    -12.01975175	     -6.36575299	     75.41616460	      1.31626038	     38.53927519	      0.88907910	     -7.49999987	     78.69974253	    -21.80413022	     -0.64491416	     77.01200186	      1.34411300	     37.99049945	      5.24733310	     -7.49999987	    -20.48187597	      1.13167135	     12.72412520	     93.05382822	    -16.41366428	     73.04335072	    130.60077688	     53.80409105	     95.48924322	      4.53178505	     74.47507365	    115.50781929	     72.78205000
      4.61666670	    -26.38402233	     -7.06799783	      5.36197422	      1.12703501	      0.77572821	     -0.09227306	     71.15807421	    -11.58986319	     -6.63174822	     72.42923814	      1.26412868	     38.14028334	      0.94624545	     -7.49999987	     74.19987115	    -22.08968607	     -2.04901839	     73.94795586	      1.29063530	     37.51004899	      5.75664730	     -7.49999987	    -20.76461911	      0.62810858	     12.23533967	     91.31313701	    -15.55830040	     72.55597417	    129.04348679	     55.23489128	     94.19949082	      3.56414371	     74.20087953	    115.10200700	     73.21814530
      4.63333330	    -25.43261603	     -6.79165488	      5.16711370	      1.12811720	      0.78838593	     -0.08678931	     68.12307270	    -11.12278628	     -7.00153884	     69.61326390	      1.21498066	     37.52434372	      1.04872862	     -7.49999987	     70.74215365	    -22.47744159	     -3.33440992	     71.10830797	      1.24107410	     36.65343061	      6.47652471	     -7.49999987	    -20.30957305	      0.25671602	     12.02068053	     90.82637690	    -15.18647718	     70.87300976	    129.74987142	     55.89561451	     93.74063553	      3.00159556	     75.06046319	    117.50866586	     73.92190877
      4.65000000	    -24.22319837	     -6.42899300	      4.88164094	      1.14547496	      0.80167826	     -0.09085737	     64.48368683	    -10.68536833	     -7.43903642	     66.44236639	      1.15963806	     37.08578410	      1.23703450	     -7.49999987	     66.46430700	    -22.74587964	     -4.81782712	     67.84120578	      1.18405241	     35.90760505	      7.16768559	     -7.49999987	    -19.48220464	     -0.19775235	     11.64652610	     88.94447269	    -14.06798078	     71.00703522	    130.64812450	     56.92130364	     91.63923499	      2.60426596	     75.39145787	    118.52247653	     74.63252973
      4.66666670	    -23.72302712	     -6.32274910	      4.60187901	      1.15187726	      0.81191946	     -0.08802175	     61.74118981	    -10.20991111	     -7.93835921	     63.51399770	      1.10852838	     36.48171440	      1.49200283	     -7.49999987	     63.24814977	    -23.03552442	     -6.05074037	     64.81740902	      1.13127720	     34.86660134	      7.90758178	     -7.49999987	    -17.89052751	     -0.34742943	     11.35129922	     86.74977880	    -13.93791256	     71.23867552	    130.49406369	     57.24070341	     89.83512998	      1.83841694	     75.78475626	    118.17097409	     74.86796970
      4.68333330	    -22.02607025	     -5.64844765	      4.27269357	      1.15856352	      0.83050063	     -0.08950539	     57.67693996	     -9.90677811	     -8.04703348	     60.36079109	      1.05349454	     35.88083054	      1.64226880	     -7.49999987	     58.11361590	    -23.12086764	     -8.12816029	     61.22982722	      1.06866209	     34.35149162	      9.08799195	     -7.49999987	    -17.80784676	     -0.91237947	     10.65784906	     84.84888681	    -13.02381211	     68.28483943	    130.06964795	     78.87358892	     87.28887760	      1.35732599	     73.05959387	    119.08473858	     89.55480037
      4.70000000	    -20.95757385	     -5.17044101	      3.90576084	      1.16406703	      0.84390451	     -0.09296946	     54.41459913	     -9.69923251	     -8.32500987	     57.34115768	      1.00079200	     34.98570436	      1.87792147	     -7.49999987	     54.01362103	    -23.03814970	     -9.89276416	     57.86586947	      1.00994995	     33.39078859	      9.96337818	     -7.49999987	    -17.07049381	     -1.16581134	     10.51562923	     83.19506831	    -13.24612857	     68.72555735	    129.87882424	     78.95893347	     85.52969608	      1.43228042	     73.04511901	    117.87795179	     89.62267003
      4.71666670	    -20.33895857	     -4.78555944	      3.57867756	      1.16972370	      0.85617208	     -0.09630432	     51.67938077	     -9.62390478	     -8.79739402	     54.28875946	      0.94751760	     33.95805552	      2.21651296	     -7.49999987	     50.60571395	    -22.70762957	    -11.38286107	     54.53663655	      0.95184387	     32.33525259	     10.54151540	     -7.49999987	    -15.82723335	     -1.14500319	     10.07322327	     82.00726543	    -12.98824803	     68.46972296	    130.41704705	     79.13747973	     83.60585472	      1.20768631	     72.07626307	    116.73732018	     89.65729625
      4.73333330	    -18.62853151	     -4.13229696	      3.13058051	      1.17576018	      0.86584184	     -0.09307406	     47.91277946	     -9.51721580	     -9.02959394	     51.27101477	      0.89484802	     33.22426636	      2.70417994	     -7.49999987	     45.94437824	    -22.32450374	    -13.12590925	     51.18457571	      0.89333937	     31.49102122	     11.43178823	     -7.49999987	    -15.55692879	     -1.49128130	     10.42086350	     81.15421924	    -12.10903749	     65.51919947	    130.42766224	     79.87565387	     81.69674802	      1.66694281	     70.86474335	    118.95577037	     89.93430712
      4.75000000	    -17.33473442	     -3.65483643	      2.61205957	      1.18647174	      0.87535547	     -0.09302048	     44.45752238	     -9.32338331	     -9.41465499	     48.11049764	      0.83968659	     32.50612441	      3.20916460	     -7.49999987	     41.70813194	    -21.85250087	    -14.53685355	     47.72360753	      0.83293408	     30.59416290	     12.13970561	     -7.49999987	    -14.56799233	     -1.59094624	     10.51141414	     79.76222915	    -11.29155970	     64.25233216	    129.26148586	     80.56761467	     79.66090812	      1.23399206	     69.22987516	    119.26922518	     90.41241868
      4.76666670	    -17.44994471	     -3.42515886	      2.21693075	      1.18241236	      0.89035564	     -0.09449832	     42.63673100	     -9.17190119	     -9.96012312	     45.09458415	      0.78704897	     31.48516055	      3.88280526	     -7.49999987	     39.66691278	    -21.39055160	    -15.46261684	     44.80421833	      0.78198113	     29.46452332	     12.76485800	     -7.49999987	    -12.77281336	     -1.45757891	     10.30616712	     78.41794759	    -11.07796210	     63.97832059	    128.04916415	     79.60198378	     78.26822592	      0.81781013	     69.52443205	    118.75963227	     88.97854371
